<?xml version="1.0" encoding="UTF-8"?>
<!DOCTYPE svg PUBLIC "-//W3C//DTD SVG 1.1//EN" "http://www.w3.org/Graphics/SVG/1.1/DTD/svg11.dtd">
<!-- Creator: CorelDRAW 2019 (64 Bit) -->
<svg xmlns="http://www.w3.org/2000/svg" xml:space="preserve" width="200mm" height="180mm" version="1.1" style="shape-rendering:geometricPrecision; text-rendering:geometricPrecision; image-rendering:optimizeQuality; fill-rule:evenodd; clip-rule:evenodd"
viewBox="0 0 20000 18000"
 xmlns:xlink="http://www.w3.org/1999/xlink">
 <defs>
  <style type="text/css">
   <![CDATA[
    .str0 {stroke:#FEFEFE;stroke-width:7.62;stroke-miterlimit:22.9256}
    .fil1 {fill:none;fill-rule:nonzero}
    .fil0 {fill:#FEFEFE;fill-rule:nonzero}
    .fil42 {fill:#1D2033;fill-rule:nonzero}
    .fil38 {fill:#202338;fill-rule:nonzero}
    .fil10 {fill:#272A45;fill-rule:nonzero}
    .fil40 {fill:#292C47;fill-rule:nonzero}
    .fil23 {fill:#2A3C57;fill-rule:nonzero}
    .fil19 {fill:#313657;fill-rule:nonzero}
    .fil43 {fill:#323657;fill-rule:nonzero}
    .fil18 {fill:#363A5E;fill-rule:nonzero}
    .fil26 {fill:#36572B;fill-rule:nonzero}
    .fil57 {fill:#3A3F47;fill-rule:nonzero}
    .fil46 {fill:#3A4066;fill-rule:nonzero}
    .fil56 {fill:#424773;fill-rule:nonzero}
    .fil27 {fill:#45613C;fill-rule:nonzero}
    .fil29 {fill:#48753A;fill-rule:nonzero}
    .fil22 {fill:#494F80;fill-rule:nonzero}
    .fil15 {fill:#51578F;fill-rule:nonzero}
    .fil30 {fill:#538742;fill-rule:nonzero}
    .fil59 {fill:#5E5854;fill-rule:nonzero}
    .fil25 {fill:#6696D6;fill-rule:nonzero}
    .fil24 {fill:#6EA2E8;fill-rule:nonzero}
    .fil49 {fill:#706865;fill-rule:nonzero}
    .fil33 {fill:#715346;fill-rule:nonzero}
    .fil39 {fill:#81807E;fill-rule:nonzero}
    .fil36 {fill:#82522F;fill-rule:nonzero}
    .fil32 {fill:#876455;fill-rule:nonzero}
    .fil31 {fill:#877670;fill-rule:nonzero}
    .fil58 {fill:#918783;fill-rule:nonzero}
    .fil28 {fill:#925E2E;fill-rule:nonzero}
    .fil35 {fill:#97A43C;fill-rule:nonzero}
    .fil34 {fill:#9E633A;fill-rule:nonzero}
    .fil16 {fill:#A77860;fill-rule:nonzero}
    .fil52 {fill:#B59074;fill-rule:nonzero}
    .fil14 {fill:#B8A9A1;fill-rule:nonzero}
    .fil60 {fill:#BFB2AC;fill-rule:nonzero}
    .fil45 {fill:#C4C1CC;fill-rule:nonzero}
    .fil37 {fill:#C67B47;fill-rule:nonzero}
    .fil50 {fill:#CCBDB7;fill-rule:nonzero}
    .fil7 {fill:#CF8C6C;fill-rule:nonzero}
    .fil21 {fill:#CFBEB8;fill-rule:nonzero}
    .fil53 {fill:#D44040;fill-rule:nonzero}
    .fil13 {fill:#D6C5BE;fill-rule:nonzero}
    .fil55 {fill:#DA9B5B;fill-rule:nonzero}
    .fil8 {fill:#DB9C7C;fill-rule:nonzero}
    .fil41 {fill:#DBD8E3;fill-rule:nonzero}
    .fil65 {fill:#DFE1E8;fill-rule:nonzero}
    .fil48 {fill:#E2D2CA;fill-rule:nonzero}
    .fil4 {fill:#E3E3E3;fill-rule:nonzero}
    .fil44 {fill:#E8734D;fill-rule:nonzero}
    .fil54 {fill:#EAD8CF;fill-rule:nonzero}
    .fil20 {fill:#EDDAD3;fill-rule:nonzero}
    .fil6 {fill:#EEA886;fill-rule:nonzero}
    .fil12 {fill:#EEA987;fill-rule:nonzero}
    .fil47 {fill:#EFAA88;fill-rule:nonzero}
    .fil9 {fill:#F08D29;fill-rule:nonzero}
    .fil5 {fill:#F2C138;fill-rule:nonzero}
    .fil63 {fill:#F5F7FF;fill-rule:nonzero}
    .fil61 {fill:#F7F7F7;fill-rule:nonzero}
    .fil3 {fill:#FAE6DE;fill-rule:nonzero}
    .fil11 {fill:#FCCCA2;fill-rule:nonzero}
    .fil51 {fill:#FFAA55;fill-rule:nonzero}
    .fil64 {fill:#FFC655;fill-rule:nonzero}
    .fil2 {fill:#FFC755;fill-rule:nonzero}
    .fil62 {fill:url(#id0)}
    .fil17 {fill:url(#id1)}
   ]]>
  </style>
  <linearGradient id="id0" gradientUnits="userSpaceOnUse" x1="3236.5" y1="11541.73" x2="6390.08" y2="11541.73">
   <stop offset="0" style="stop-opacity:1; stop-color:#FF9F55"/>
   <stop offset="1" style="stop-opacity:1; stop-color:#FFD255"/>
  </linearGradient>
  <linearGradient id="id1" gradientUnits="userSpaceOnUse" xlink:href="#id0" x1="4081.86" y1="12753.23" x2="10879.32" y2="12753.23">
  </linearGradient>
 </defs>
 <g id="Camada_x0020_1">
  <metadata id="CorelCorpID_0Corel-Layer"/>
  <g id="_1887589126944">
   <g>
    <g>
     <path class="fil0" d="M12097.39 2008.78c-85.93,160.33 -151.34,295 -196.24,406.58 -44.89,111.59 -93.63,262.94 -146.21,452.76 -97.48,384.78 -146.22,773.41 -146.22,1163.32 0,747.76 261.65,1210.77 783.67,1389.06 83.37,32.06 124.41,61.56 124.41,85.93 0,60.28 -35.91,118 -106.45,174.43 -71.83,56.44 -168.02,101.33 -289.87,134.68 -121.85,34.63 -246.26,51.3 -374.52,51.3 -150.06,0 -301.41,-26.93 -454.04,-80.8 -152.63,-53.87 -275.76,-124.41 -368.11,-211.63 -155.19,-152.63 -278.32,-347.59 -366.82,-583.58 -88.5,-237.29 -133.39,-489.96 -133.39,-760.59 0,-315.52 44.89,-637.45 133.39,-965.79 88.5,-329.63 215.48,-645.15 377.08,-946.56 162.89,-301.41 359.13,-581.02 587.43,-836.26 227.02,-256.52 473.28,-473.28 736.22,-647.71 170.58,-112.87 294.99,-169.3 375.8,-169.3 57.72,0 106.45,8.97 146.22,25.65 39.76,17.95 60.28,42.32 60.28,71.82 0,37.2 -66.7,152.63 -198.81,345.02 -155.19,236 -298.84,466.87 -432.23,695.17 -16.68,32.07 -55.15,101.33 -111.59,206.5z"/>
     <path id="1" class="fil0" d="M13712.19 4813.83c362.97,-613.09 545.1,-1214.63 545.1,-1803.34 0,-241.13 -30.78,-464.3 -92.35,-672.08 -61.56,-206.5 -150.06,-386.06 -265.49,-537.41 -115.44,-151.35 -257.81,-274.48 -427.11,-369.39 -62.85,-35.91 -105.17,-66.69 -128.26,-92.35 -21.8,-26.93 -33.35,-57.71 -33.35,-92.34 0,-78.24 64.13,-185.98 191.11,-323.22 85.93,-85.93 180.85,-153.91 284.74,-205.22 103.89,-51.3 201.37,-76.95 291.15,-76.95 220.6,0 436.08,107.74 646.43,323.21 360.41,362.98 541.25,901.67 541.25,1616.08 0,359.13 -47.45,697.73 -141.08,1015.82 -93.63,318.08 -239.85,623.34 -437.37,917.06 -147.5,228.3 -325.78,454.04 -534.84,677.21 -209.07,221.89 -405.3,398.89 -587.43,529.71 -62.85,47.46 -128.26,84.66 -197.52,112.87 -69.26,26.94 -125.7,41.05 -170.59,41.05 -38.48,0 -67.98,-11.55 -91.06,-33.35 -21.81,-23.09 -33.35,-52.59 -33.35,-91.07 0,-76.95 56.43,-174.43 169.3,-288.58 157.76,-185.98 314.24,-401.45 470.72,-647.71z"/>
     <path class="fil0" d="M13228.8 5871.84c72.64,0 109.28,-41.06 109.28,-123.8 0,-87.8 -28.43,-202.12 -85.91,-342.97 -57.47,-140.22 -118.74,-248.86 -184.43,-325.92 -30.32,-35.37 -65.06,-60.64 -102.33,-75.8 -37.89,-14.53 -89.06,-22.11 -154.74,-22.11 -113.07,0 -169.91,34.11 -169.91,101.7l0 7.58c8.84,81.48 34.11,164.85 75.79,250.12 49.27,107.38 91.59,190.12 126.96,247.6 34.74,58.11 70.74,106.11 108.01,142.75 40.42,44.84 86.53,78.95 137.06,103.58 50.53,24.64 97.27,37.27 140.22,37.27z"/>
    </g>
    <path class="fil0" d="M15408.4 4958.82c52.84,0 102.48,10.01 148.91,30.02 46.44,20.02 87.27,47.24 122.5,81.66 35.22,34.43 62.84,74.86 82.86,121.29 20.01,46.44 30.02,96.07 30.02,148.91 0,52.84 -10.01,102.48 -30.02,148.92 -20.02,46.43 -47.64,87.26 -82.86,122.49 -35.23,35.22 -76.06,62.84 -122.5,82.86 -46.43,20.01 -96.07,30.02 -148.91,30.02 -43.23,0 -84.86,-6.8 -124.89,-20.41 -40.03,-13.61 -76.06,-32.83 -108.08,-57.65 -32.03,-24.82 -60.05,-54.44 -84.06,-88.86 -24.02,-34.43 -41.64,-72.46 -52.84,-114.09 -4.81,-17.61 -2.41,-33.62 7.2,-48.03 8.01,-16.02 20.02,-26.42 36.03,-31.23 20.81,-3.2 36.83,-0.8 48.03,7.21 16.02,8 26.42,20.81 31.23,38.43 14.41,56.04 44.83,101.27 91.27,135.7 46.43,34.42 98.47,51.64 156.11,51.64 35.23,0 68.45,-6.81 99.68,-20.42 31.22,-13.61 58.44,-32.02 81.66,-55.24 23.22,-23.22 41.63,-50.44 55.24,-81.66 13.61,-31.22 20.42,-64.45 20.42,-99.68 0,-35.22 -6.81,-68.45 -20.42,-99.67 -13.61,-31.22 -32.02,-58.44 -55.24,-81.66 -23.22,-23.22 -50.44,-41.63 -81.66,-55.24 -31.23,-13.61 -64.45,-20.42 -99.68,-20.42l-28.82 0c-44.83,0 -87.26,-8.81 -127.29,-26.42 -40.03,-17.61 -75.26,-41.23 -105.68,-70.85 -30.43,-29.62 -54.04,-64.45 -70.86,-104.48 -16.81,-40.03 -25.22,-82.46 -25.22,-127.3 0,-46.43 8.41,-89.26 25.22,-128.49 16.82,-39.23 40.03,-74.06 69.66,-104.48 29.62,-30.42 64.44,-54.04 104.47,-70.85 40.03,-16.82 82.47,-25.22 127.3,-25.22 91.27,0 168.93,32.02 232.97,96.07 12.81,12.81 19.22,27.62 19.22,44.43 0,16.82 -6.41,31.63 -19.22,44.44 -12.81,12.81 -27.62,19.21 -44.43,19.21 -16.81,0 -31.62,-6.4 -44.43,-19.21 -40.03,-40.03 -88.07,-60.05 -144.11,-60.05 -27.22,0 -53.24,5.21 -78.06,15.61 -24.82,10.41 -46.43,24.82 -64.85,43.24 -18.41,18.41 -32.82,40.03 -43.23,64.84 -10.41,24.82 -15.61,51.64 -15.61,80.46 0,56.05 20.01,104.08 60.04,144.11 40.03,40.03 88.07,60.05 144.11,60.05l28.82 0z"/>
    <path id="1" class="fil0" d="M16297.07 4432.82c49.64,0 96.47,9.61 140.51,28.82 44.03,19.22 82.06,44.84 114.08,76.86 32.02,32.03 57.64,70.06 76.86,114.09 19.21,44.03 28.82,90.87 28.82,140.5l0 48.04c0,49.64 -9.61,96.47 -28.82,140.5 -19.22,44.04 -44.84,82.07 -76.86,114.09 -32.02,32.02 -70.05,57.64 -114.08,76.86 -44.04,19.21 -90.87,28.82 -140.51,28.82l-235.38 0 0 160.92c0,65.65 22.82,120.89 68.45,165.72 45.64,44.84 101.28,67.25 166.93,67.25 51.24,0 97.27,-14.81 138.1,-44.43 40.83,-29.62 69.26,-69.25 85.27,-118.89 4.8,-19.21 15.21,-32.02 31.22,-38.43 16.01,-8 32.02,-9.6 48.04,-4.8 16.01,4.8 28.02,15.21 36.02,31.22 8.01,16.02 9.61,32.03 4.81,48.04 -22.42,76.86 -65.25,138.5 -128.5,184.94 -63.25,46.43 -134.9,69.65 -214.96,69.65 -49.64,0 -96.47,-9.61 -140.51,-28.82 -44.03,-19.22 -82.06,-45.24 -114.08,-78.06 -32.02,-32.82 -57.64,-70.85 -76.86,-114.09 -19.21,-43.23 -28.82,-89.66 -28.82,-139.3l0 -569.23c0,-49.63 9.61,-96.47 28.82,-140.5 19.22,-44.03 44.84,-82.06 76.86,-114.09 32.02,-32.02 70.05,-57.64 114.08,-76.86 44.04,-19.21 90.87,-28.82 140.51,-28.82zm232.97 360.27c0,-65.65 -22.41,-121.29 -67.25,-166.92 -44.83,-45.64 -100.07,-68.45 -165.72,-68.45 -65.65,0 -121.29,22.81 -166.93,68.45 -45.63,45.63 -68.45,101.27 -68.45,166.92l0 283.42 235.38 0c65.65,0 120.89,-22.82 165.72,-68.46 44.84,-45.63 67.25,-101.27 67.25,-166.92l0 -48.04z"/>
    <path id="2" class="fil0" d="M17413.91 4528.9c70.45,70.45 105.68,154.51 105.68,252.18l0 792.6c0,36.83 -12.01,68.85 -36.03,96.07 -24.02,27.22 -55.24,44.83 -93.67,52.84l0 -941.51c0,-65.64 -22.42,-120.09 -67.25,-163.32 -43.23,-43.23 -97.67,-64.85 -163.32,-64.85 -64.05,0 -117.69,21.62 -160.92,64.85 -44.84,44.84 -67.25,99.28 -67.25,163.32l0 792.6c0,36.83 -12.01,68.85 -36.03,96.07 -24.02,27.22 -55.24,44.83 -93.67,52.84l0 -1234.53c0,-17.61 6.4,-32.82 19.21,-45.63 16.02,-12.81 32.03,-19.21 48.04,-19.21 27.22,0 46.44,12.01 57.64,36.02l16.82 36.03 33.62 -21.62c60.85,-33.62 122.49,-50.43 184.94,-50.43 94.47,0 178.53,35.22 252.19,105.68z"/>
    <path id="3" class="fil0" d="M18019.16 4425.62c99.27,0 183.34,35.22 252.19,105.68 68.85,68.85 103.27,152.11 103.27,249.78l0 586.04c0,97.68 -34.42,180.94 -103.27,249.79 -68.85,70.45 -152.92,105.68 -252.19,105.68 -94.47,0 -178.54,-35.23 -252.19,-105.68 -70.45,-70.45 -105.68,-153.71 -105.68,-249.79 0,-96.07 35.23,-179.33 105.68,-249.78 73.65,-70.46 157.72,-105.68 252.19,-105.68l228.17 0 0 -230.58c0,-64.04 -21.62,-117.68 -64.85,-160.92 -44.83,-44.83 -99.27,-67.25 -163.32,-67.25 -35.23,0 -70.05,8.41 -104.48,25.22 -34.43,16.81 -62.85,38.83 -85.26,66.05 -11.21,14.41 -19.62,28.42 -25.22,42.03 -5.61,13.61 -10.01,26.82 -13.21,39.63l0 2.4c-1.6,4.81 -3.21,9.61 -4.81,14.42 -1.6,4.8 -2.4,8 -2.4,9.6 -16.01,19.22 -36.03,27.22 -60.04,24.02 -17.62,-3.2 -31.63,-11.61 -42.03,-25.22 -10.41,-13.61 -14.82,-29.22 -13.21,-46.83 14.41,-64.05 47.23,-121.69 98.47,-172.93 73.65,-70.46 157.72,-105.68 252.19,-105.68zm228.17 710.93l-228.17 0c-64.05,0 -118.49,22.42 -163.32,67.25 -44.84,44.83 -67.25,99.28 -67.25,163.32 0,62.45 23.21,116.89 69.65,163.33 43.23,43.23 96.87,64.84 160.92,64.84 60.84,0 115.28,-22.41 163.32,-67.25 43.23,-43.23 64.85,-96.87 64.85,-160.92l0 -230.57z"/>
    <path id="4" class="fil0" d="M18583.58 4430.42c17.61,0 33.22,6.01 46.83,18.02 13.61,12 20.42,26.82 20.42,44.43l-2.4 1083.21c0,36.83 -12.01,68.45 -36.03,94.87 -24.02,26.42 -54.44,43.63 -91.27,51.64l0 -1229.72c0,-17.61 6,-32.43 18.01,-44.43 12.01,-12.01 26.82,-18.02 44.44,-18.02z"/>
    <path id="5" class="fil1 str0" d="M15408.4 4958.82c52.84,0 102.48,10.01 148.91,30.02 46.44,20.02 87.27,47.24 122.5,81.66 35.22,34.43 62.84,74.86 82.86,121.29 20.01,46.44 30.02,96.07 30.02,148.91 0,52.84 -10.01,102.48 -30.02,148.92 -20.02,46.43 -47.64,87.26 -82.86,122.49 -35.23,35.22 -76.06,62.84 -122.5,82.86 -46.43,20.01 -96.07,30.02 -148.91,30.02 -43.23,0 -84.86,-6.8 -124.89,-20.41 -40.03,-13.61 -76.06,-32.83 -108.08,-57.65 -32.03,-24.82 -60.05,-54.44 -84.06,-88.86 -24.02,-34.43 -41.64,-72.46 -52.84,-114.09 -4.81,-17.61 -2.41,-33.62 7.2,-48.03 8.01,-16.02 20.02,-26.42 36.03,-31.23 20.81,-3.2 36.83,-0.8 48.03,7.21 16.02,8 26.42,20.81 31.23,38.43 14.41,56.04 44.83,101.27 91.27,135.7 46.43,34.42 98.47,51.64 156.11,51.64 35.23,0 68.45,-6.81 99.68,-20.42 31.22,-13.61 58.44,-32.02 81.66,-55.24 23.22,-23.22 41.63,-50.44 55.24,-81.66 13.61,-31.22 20.42,-64.45 20.42,-99.68 0,-35.22 -6.81,-68.45 -20.42,-99.67 -13.61,-31.22 -32.02,-58.44 -55.24,-81.66 -23.22,-23.22 -50.44,-41.63 -81.66,-55.24 -31.23,-13.61 -64.45,-20.42 -99.68,-20.42l-28.82 0c-44.83,0 -87.26,-8.81 -127.29,-26.42 -40.03,-17.61 -75.26,-41.23 -105.68,-70.85 -30.43,-29.62 -54.04,-64.45 -70.86,-104.48 -16.81,-40.03 -25.22,-82.46 -25.22,-127.3 0,-46.43 8.41,-89.26 25.22,-128.49 16.82,-39.23 40.03,-74.06 69.66,-104.48 29.62,-30.42 64.44,-54.04 104.47,-70.85 40.03,-16.82 82.47,-25.22 127.3,-25.22 91.27,0 168.93,32.02 232.97,96.07 12.81,12.81 19.22,27.62 19.22,44.43 0,16.82 -6.41,31.63 -19.22,44.44 -12.81,12.81 -27.62,19.21 -44.43,19.21 -16.81,0 -31.62,-6.4 -44.43,-19.21 -40.03,-40.03 -88.07,-60.05 -144.11,-60.05 -27.22,0 -53.24,5.21 -78.06,15.61 -24.82,10.41 -46.43,24.82 -64.85,43.24 -18.41,18.41 -32.82,40.03 -43.23,64.84 -10.41,24.82 -15.61,51.64 -15.61,80.46 0,56.05 20.01,104.08 60.04,144.11 40.03,40.03 88.07,60.05 144.11,60.05l28.82 0z"/>
    <path id="6" class="fil1 str0" d="M16297.07 4432.82c49.64,0 96.47,9.61 140.51,28.82 44.03,19.22 82.06,44.84 114.08,76.86 32.02,32.03 57.64,70.06 76.86,114.09 19.21,44.03 28.82,90.87 28.82,140.5l0 48.04c0,49.64 -9.61,96.47 -28.82,140.5 -19.22,44.04 -44.84,82.07 -76.86,114.09 -32.02,32.02 -70.05,57.64 -114.08,76.86 -44.04,19.21 -90.87,28.82 -140.51,28.82l-235.38 0 0 160.92c0,65.65 22.82,120.89 68.45,165.72 45.64,44.84 101.28,67.25 166.93,67.25 51.24,0 97.27,-14.81 138.1,-44.43 40.83,-29.62 69.26,-69.25 85.27,-118.89 4.8,-19.21 15.21,-32.02 31.22,-38.43 16.01,-8 32.02,-9.6 48.04,-4.8 16.01,4.8 28.02,15.21 36.02,31.22 8.01,16.02 9.61,32.03 4.81,48.04 -22.42,76.86 -65.25,138.5 -128.5,184.94 -63.25,46.43 -134.9,69.65 -214.96,69.65 -49.64,0 -96.47,-9.61 -140.51,-28.82 -44.03,-19.22 -82.06,-45.24 -114.08,-78.06 -32.02,-32.82 -57.64,-70.85 -76.86,-114.09 -19.21,-43.23 -28.82,-89.66 -28.82,-139.3l0 -569.23c0,-49.63 9.61,-96.47 28.82,-140.5 19.22,-44.03 44.84,-82.06 76.86,-114.09 32.02,-32.02 70.05,-57.64 114.08,-76.86 44.04,-19.21 90.87,-28.82 140.51,-28.82zm232.97 360.27c0,-65.65 -22.41,-121.29 -67.25,-166.92 -44.83,-45.64 -100.07,-68.45 -165.72,-68.45 -65.65,0 -121.29,22.81 -166.93,68.45 -45.63,45.63 -68.45,101.27 -68.45,166.92l0 283.42 235.38 0c65.65,0 120.89,-22.82 165.72,-68.46 44.84,-45.63 67.25,-101.27 67.25,-166.92l0 -48.04z"/>
    <path id="7" class="fil1 str0" d="M17413.91 4528.9c70.45,70.45 105.68,154.51 105.68,252.18l0 792.6c0,36.83 -12.01,68.85 -36.03,96.07 -24.02,27.22 -55.24,44.83 -93.67,52.84l0 -941.51c0,-65.64 -22.42,-120.09 -67.25,-163.32 -43.23,-43.23 -97.67,-64.85 -163.32,-64.85 -64.05,0 -117.69,21.62 -160.92,64.85 -44.84,44.84 -67.25,99.28 -67.25,163.32l0 792.6c0,36.83 -12.01,68.85 -36.03,96.07 -24.02,27.22 -55.24,44.83 -93.67,52.84l0 -1234.53c0,-17.61 6.4,-32.82 19.21,-45.63 16.02,-12.81 32.03,-19.21 48.04,-19.21 27.22,0 46.44,12.01 57.64,36.02l16.82 36.03 33.62 -21.62c60.85,-33.62 122.49,-50.43 184.94,-50.43 94.47,0 178.53,35.22 252.19,105.68z"/>
    <path id="8" class="fil1 str0" d="M18019.16 4425.62c99.27,0 183.34,35.22 252.19,105.68 68.85,68.85 103.27,152.11 103.27,249.78l0 586.04c0,97.68 -34.42,180.94 -103.27,249.79 -68.85,70.45 -152.92,105.68 -252.19,105.68 -94.47,0 -178.54,-35.23 -252.19,-105.68 -70.45,-70.45 -105.68,-153.71 -105.68,-249.79 0,-96.07 35.23,-179.33 105.68,-249.78 73.65,-70.46 157.72,-105.68 252.19,-105.68l228.17 0 0 -230.58c0,-64.04 -21.62,-117.68 -64.85,-160.92 -44.83,-44.83 -99.27,-67.25 -163.32,-67.25 -35.23,0 -70.05,8.41 -104.48,25.22 -34.43,16.81 -62.85,38.83 -85.26,66.05 -11.21,14.41 -19.62,28.42 -25.22,42.03 -5.61,13.61 -10.01,26.82 -13.21,39.63l0 2.4c-1.6,4.81 -3.21,9.61 -4.81,14.42 -1.6,4.8 -2.4,8 -2.4,9.6 -16.01,19.22 -36.03,27.22 -60.04,24.02 -17.62,-3.2 -31.63,-11.61 -42.03,-25.22 -10.41,-13.61 -14.82,-29.22 -13.21,-46.83 14.41,-64.05 47.23,-121.69 98.47,-172.93 73.65,-70.46 157.72,-105.68 252.19,-105.68zm228.17 710.93l-228.17 0c-64.05,0 -118.49,22.42 -163.32,67.25 -44.84,44.83 -67.25,99.28 -67.25,163.32 0,62.45 23.21,116.89 69.65,163.33 43.23,43.23 96.87,64.84 160.92,64.84 60.84,0 115.28,-22.41 163.32,-67.25 43.23,-43.23 64.85,-96.87 64.85,-160.92l0 -230.57z"/>
    <path id="9" class="fil1 str0" d="M18583.58 4430.42c17.61,0 33.22,6.01 46.83,18.02 13.61,12 20.42,26.82 20.42,44.43l-2.4 1083.21c0,36.83 -12.01,68.45 -36.03,94.87 -24.02,26.42 -54.44,43.63 -91.27,51.64l0 -1229.72c0,-17.61 6,-32.43 18.01,-44.43 12.01,-12.01 26.82,-18.02 44.44,-18.02z"/>
   </g>
   <polygon class="fil2" points="15392.12,7269.67 13921.37,7269.67 13921.37,8335.7 15167.59,8335.7 15392.12,8560.23 "/>
   <polygon class="fil3" points="5006.69,3067.56 2926.85,3067.56 2926.85,4575.05 4689.16,4575.05 5006.69,4892.58 "/>
   <path class="fil4" d="M5643.18 6473.71l-4688.17 0c-13.33,0 -24.12,-10.82 -24.12,-24.14l0 -230.35c0,-13.33 10.79,-24.12 24.12,-24.12l4688.17 0c13.32,0 24.12,10.79 24.12,24.12l0 230.35c0,13.32 -10.8,24.14 -24.12,24.14z"/>
   <path class="fil4" d="M4200.1 8845.2l-3245.09 0c-13.33,0 -24.12,-10.75 -24.12,-24.08l0 -230.37c0,-13.34 10.79,-24.09 24.12,-24.09l3245.09 0c13.33,0 24.13,10.75 24.13,24.09l0 230.37c0,13.33 -10.8,24.08 -24.13,24.08z"/>
   <path class="fil4" d="M3650.03 7066.54l-2695.02 0c-13.33,0 -24.12,-10.76 -24.12,-24.09l0 -230.36c0,-13.33 10.79,-24.1 24.12,-24.1l2695.02 0c13.33,0 24.12,10.77 24.12,24.1l0 230.36c0,13.33 -10.79,24.09 -24.12,24.09z"/>
   <path class="fil4" d="M4643.03 7659.44l-3688.02 0c-13.33,0 -24.12,-10.77 -24.12,-24.09l0 -230.37c0,-13.33 10.79,-24.1 24.12,-24.1l3688.02 0c13.32,0 24.12,10.77 24.12,24.1l0 230.37c0,13.32 -10.8,24.09 -24.12,24.09z"/>
   <path class="fil4" d="M2499.85 8252.33l-1544.84 0c-13.33,0 -24.12,-10.77 -24.12,-24.1l0 -230.36c0,-13.35 10.79,-24.1 24.12,-24.1l1544.84 0c13.33,0 24.14,10.75 24.14,24.1l0 230.36c0,13.33 -10.81,24.1 -24.14,24.1z"/>
   <path class="fil5" d="M2499.85 5887.72l-1544.84 0c-13.33,0 -24.12,-10.82 -24.12,-24.14l0 -230.35c0,-13.33 10.79,-24.14 24.12,-24.14l1544.84 0c13.33,0 24.14,10.81 24.14,24.14l0 230.35c0,13.32 -10.81,24.14 -24.14,24.14z"/>
   <path class="fil6" d="M10938.09 7943.14c0,0 -195.77,-258.55 -224.41,-299.03 -28.64,-40.34 -28.99,-187.81 10.07,-341.94 38,-149.67 68.17,-364.84 92.15,-378.52 23.96,-13.57 38.69,-36.61 109.34,-30.3 70.63,6.2 126.87,49.93 126.87,49.93 0,0 90.73,-32.85 155.88,26.32 0,0 86.77,-27.12 149.81,52.04 0,0 85.35,-24.2 126.28,37.19 0,0 3.16,138.21 19.18,188.97 16.14,50.87 -19.99,416.07 -75.42,690.19 0,0 -117.99,163.94 -489.75,5.15z"/>
   <path class="fil7" d="M11020.3 7491.16c0,0 141.73,81.38 169.8,124.19 28.19,42.8 261.6,-233.29 261.6,-233.29 0,0 -327.08,-59.17 -431.4,109.1z"/>
   <path class="fil8" d="M10808.41 6967.03c0,0 -16.73,402.51 48.3,413.28 65.01,10.63 95.54,-24.57 95.54,-24.57l68.76 168.85c0,0 109.21,86.2 172.02,-56.94 0,0 93.55,90.97 137.62,-54.5 0,0 88.78,32.76 121.05,-31.09 32.38,-63.75 32.38,-323.23 32.38,-323.23 0,0 -22.57,-60.82 -124.06,-43.27 0,0 -56.61,-79.06 -150.62,-51.69 0,0 -91.34,-72.74 -192.5,-42.33 0,0 -106.05,-65.14 -204.05,3.97 0,0 -3.87,24.56 -4.44,41.52z"/>
   <path class="fil6" d="M10712.74 7631.49c0,0 137.31,-240.66 270.37,-339.48 30.05,-22.34 63.38,-38.59 95.67,-19.19 32.26,19.31 45.02,90.17 -9.12,197.4 -54.04,107.23 -74.5,270.49 -74.5,270.49 0,0 -88.07,94.14 -282.42,-109.22z"/>
   <path class="fil6" d="M11016.9 6921.54c0,0 -70.73,432.09 -53.78,473.14 16.96,41.04 -142.54,16.25 -154.49,-19.76 -12.03,-36.03 -10.76,-400.99 -2.2,-436.77 8.53,-35.79 139.15,-104.2 210.47,-16.61z"/>
   <path class="fil6" d="M10784.9 7014.15c0,0 121.86,-704.78 205.01,-696.39 79.75,8.06 119.26,178.87 3.97,716.85 -112.15,523.09 -208.98,-20.46 -208.98,-20.46z"/>
   <path class="fil6" d="M11427.84 7937.99c0,0 -75.66,183.25 -146.76,263.92 -71.22,80.7 -313.17,-110.85 -342.99,-258.77 -29.82,-148.06 489.75,-5.15 489.75,-5.15z"/>
   <polygon class="fil9" points="6386.25,5442.5 6424.55,5442.5 6424.55,4498.24 6386.25,4498.24 "/>
   <polygon class="fil10" points="9540.31,4474.94 7503.21,5126.84 5466.08,4474.94 7503.21,3728.13 "/>
   <path class="fil11" d="M8263.2 5805.04c0,0 670.3,1401.95 208.86,1485.79 -633.5,115.19 -889.83,-1046.05 -889.83,-1046.05l680.97 -439.74z"/>
   <path class="fil10" d="M9109.38 9564.63c176.58,262.4 551.84,611.72 738.12,609.14 120.22,-1.65 2059.33,-1678.21 2058.86,-1775.17 -0.71,-109.45 -1127.53,-586.55 -1127.53,-586.55 0,0 -326.28,398.53 -508.93,648.53 -208.86,286.04 -371.41,480.63 -432.57,523.09 -61.15,42.44 -340.52,-433.74 -340.52,-433.74 -133.91,-226.97 -282.99,-480.73 -487.53,-875.41 -197.4,-381.12 -977.78,-624.69 -977.78,-624.69 -931.25,414.79 806,2058.27 806,2058.27 0,0 187.69,336.54 271.88,456.53z"/>
   <path class="fil10" d="M9430.15 12870.3l-3865.92 0c6.33,-82.44 12.33,-163.37 18.66,-242.65 70.47,-894.37 148.57,-1573.44 231.37,-1795.16 330.93,-885.58 -165.3,-3444.83 -165.3,-3444.83 0,0 236.08,-213.18 1126.15,-409.52l1847.45 381.57c0,0 482.38,368.14 528.45,1033.88 46.2,665.62 -92.62,2467.09 9.24,2978.25 22.1,111.89 107.47,585.04 226.63,1255.81 14.16,78 28.41,159.27 43.27,242.65z"/>
   <path class="fil6" d="M7899.42 6460.79c0,0 -80.61,735.45 -63.79,974.82 0,0 -419.84,417.48 -897.44,-487.29 0,0 200.96,-372.85 49.7,-880.95 -151.25,-508.11 911.53,393.42 911.53,393.42z"/>
   <polygon class="fil6" points="7835.63,7435.61 7835.63,7817.08 7352.41,7458.76 "/>
   <path class="fil12" d="M6763.12 5171.4c0,0 -88.18,-105.05 -121.05,0.76 -32.9,105.78 74.84,420.3 86.67,465.83 0,0 53.45,176.5 74.8,153.97 21.33,-22.52 -40.42,-620.56 -40.42,-620.56z"/>
   <path class="fil12" d="M8303.6 5184.49c0,0 88.24,-105.07 121.09,0.73 32.87,105.81 -74.84,420.31 -86.65,465.84 0,0 -53.49,176.51 -74.84,153.98 -21.35,-22.53 40.4,-620.55 40.4,-620.55z"/>
   <path class="fil12" d="M7671.73 4165.78c0,0 809.45,123.65 690.86,1388.45 -118.43,1264.88 -832.79,1164.43 -880.52,1163.37 -47.7,-1.04 -716.63,26.3 -774.5,-1517.05 0,0 -26.99,-1141.33 964.16,-1034.77z"/>
   <path class="fil11" d="M6862.82 5124.93c0,0 898.31,265.02 1328.4,180.28 0,0 27.44,157.39 89.2,167.09 61.71,9.69 93.3,-300.9 93.3,-300.9 0,0 21.03,-1028.54 -916.83,-1038.23 -937.89,-9.69 -747.35,1114.07 -747.35,1114.07l12.76 192.07c0,0 134.35,52.62 140.52,-314.38z"/>
   <path class="fil9" d="M8031.5 7049.83l0 1404.33 633.15 -1113.15c0,0 -237.86,-220.32 -633.15,-291.18z"/>
   <path class="fil13" d="M7835.63 7817.08l245.54 -285.35 -213.2 -750.99c0,0 -71.61,418.31 -32.34,1036.34z"/>
   <polygon class="fil3" points="8081.17,7531.73 8410.65,7673.46 7867.97,6780.74 "/>
   <polygon class="fil14" points="8031.5,8454.16 8031.5,7589.5 7835.63,7817.08 7590.29,7628.8 7466.23,7790.07 "/>
   <polygon class="fil13" points="7835.63,7817.08 7634.99,7570.67 6959.17,6902.36 6842.52,7055.19 "/>
   <path class="fil10" d="M6420.47 12627.65c31.93,105.35 58.15,190.01 74.29,242.65l-1269.89 0c-7.59,-76.84 28.32,-157.98 24.45,-242.65 -21.96,-481.8 -20.48,-726.67 -34.99,-1082.42 -34.44,-845.23 19.3,-1425.14 27.52,-1567.8 8.51,-143.02 -5.7,-1008.5 29.39,-1218.88 35.07,-210.37 -89.76,-645.27 140.33,-1092.44 230.09,-446.83 878.69,-561.32 878.69,-561.32 561.36,183.84 16.12,1270.32 -58.79,1796.44 -75.23,525.87 -316.39,1744.4 -180.48,2368.62 89.76,411.75 262.35,1003.12 369.48,1357.8z"/>
   <path class="fil9" d="M6775.07 6978.25l1256.43 1475.91 -2325.77 -1108.35c0,0 461.4,-344.04 1069.34,-367.56z"/>
   <polygon class="fil3" points="7634.99,7570.67 7352.41,7938.11 6775.07,6978.25 6959.17,6902.36 "/>
   <path class="fil9" d="M6406.01 5412.62l0 -0.18c-0.2,0 -0.4,0.08 -0.61,0.08 -0.22,0 -0.42,-0.08 -0.59,-0.08l0 0.18c-90.25,4.22 -79.83,464.87 -79.83,464.87l160.83 0c0,0 10.44,-460.65 -79.8,-464.87z"/>
   <path class="fil10" d="M8325.06 4609.06c0,0 -105.97,-663.46 -821.85,-592.87 -715.91,70.61 -764.36,311.45 -818.93,649.95l1640.78 -57.08z"/>
   <path class="fil15" d="M8349.38 4929.32c0,0 -524.26,-252.72 -1654.19,19.81l-10.91 -282.99c0,0 17.88,-6.86 51.03,-17.77 194.8,-64.12 914.21,-270.5 1551.68,-52.84 12.6,4.23 25.43,8.89 38.07,13.53l24.32 320.26 0 0z"/>
   <path class="fil16" d="M7113.38 6551.98c0,0 264.31,328.05 710.48,100.37 0,0 -146.94,239.73 -377.39,222.88 -230.48,-16.73 -333.09,-323.25 -333.09,-323.25z"/>
   <polygon class="fil17" points="4081.85,12874.63 10879.26,12874.63 10879.26,12631.98 4081.85,12631.98 "/>
   <path class="fil12" d="M18223.91 10028.64c0,0 78.05,-72.26 62.52,-126.42 -13.17,-46.06 6.68,-97.75 11.59,-119.04 6.69,-28.41 9.44,-120.33 30.67,-115.29 35.77,8.65 27.32,155.53 31.84,186.74 4.33,31.36 99.08,-73.44 131.51,-78.92 32.44,-5.51 196.97,161.25 123.65,225.57 -73.32,64.43 -174.56,90.52 -185.17,104.44 -10.62,13.9 -60.94,52.03 -60.94,52.03l-145.67 -129.11z"/>
   <path class="fil12" d="M18471.4 9786.7c0,0 237.66,-182.19 263.61,-181.03 26.14,1.16 35.18,14.63 13.56,32.51 -21.42,18.01 -224.49,182.66 -224.49,182.66 0,0 317.47,-168.27 338.9,-172.02 12.58,-2.22 22.21,21.76 11.6,32.51 -10.62,10.64 -306.07,196.46 -306.07,196.46 0,0 296.63,-156.59 315.5,-154.35 16.71,1.86 28.5,29.23 7.28,42.44 -21.24,13.09 -288.38,174.01 -288.38,174.01 0,0 223.11,-100.34 238.05,-89.11 9.05,6.9 21.82,22.21 -36.56,46.31 -58.38,24.08 -185.37,101.02 -185.37,101.02l-147.63 -211.41z"/>
   <path class="fil11" d="M16573.28 7831.56c0,0 568.29,-47.23 552.77,550.79 -15.53,597.92 -110.28,687.97 0.39,1110.47 110.67,422.63 -554.15,-239.96 -554.15,-239.96l0.99 -1421.3z"/>
   <path class="fil18" d="M14841.57 16781.48c0,0 -211.08,296.56 -182.09,343.58 28.88,47.01 250.84,53.67 386.02,0 135.07,-53.8 138.35,-401.34 199.5,-550.56 25.5,-62.56 -29.23,-247.1 -106.17,-260.43 -77.07,-13.44 -160.8,25.86 -160.8,25.86 0,0 79.87,210.36 -136.46,441.55z"/>
   <path class="fil6" d="M14976.62 16337.59c0,0 -44.43,126.29 -60.68,246.85 -13.45,99.98 -150.38,312.34 -143.95,339.13 6.42,26.89 180.2,51.22 250.94,-18.02 70.75,-69.22 116.36,-270.59 131.93,-391.04 14.48,-112.15 32.84,-167.57 32.84,-167.57 0,0 -143.48,-83.27 -211.08,-9.35z"/>
   <path class="fil18" d="M16678.84 16786.4c0,0 -203.45,291.64 -174.56,338.66 29.09,47.01 251.03,53.67 386.07,0 135.25,-53.8 138.39,-401.34 199.53,-550.56 25.55,-62.56 -29.29,-247.1 -106.15,-260.43 -77.06,-13.44 -167.49,28.76 -167.49,28.76 0,0 78.83,212.38 -137.4,443.57z"/>
   <path class="fil6" d="M16816.24 16342.83c0,0 -15.92,137.65 -41.67,234.94 -25.75,97.42 -164.14,319.01 -157.65,345.8 6.48,26.89 180.06,51.22 251.02,-18.02 70.77,-69.22 125.42,-269.65 131.9,-391.04 6.49,-121.39 -16.11,-200.44 -16.11,-200.44 0,0 -99.86,-45.13 -167.49,28.76z"/>
   <path class="fil19" d="M15799.66 11515.2c0,0 -181.15,879.27 -222.78,1100.64 -41.64,221.48 -158.11,1293.6 -170.61,1475.9 -12.4,182.42 -188.98,869.33 -180.67,934.47 8.41,65.13 -286.62,1355.68 -286.62,1355.68 0,0 208.97,22.57 292.34,-12.26 56.95,-23.87 514.54,-1187.88 514.54,-1513.45 0,-449.98 251.32,-1037.5 287.8,-1140.06 358.57,-1008.25 424.42,-1247.4 474.36,-1308.2 0,0 7.46,82.21 24.57,218.79 19.46,157.16 104.97,1279.32 142.51,1426.91 37.55,147.57 8.46,646.79 29.29,898.57 20.64,251.77 59.37,1400.24 59.37,1400.24 0,0 187.73,8.17 270.49,-41.17 27.71,-16.61 123.44,-1234.07 127.57,-1533.55 4.13,-299.6 8.65,-712.65 16.71,-842.21 77.06,-1241.19 266.36,-1418.48 -32.04,-2296.93 -558.47,-1644.76 -1346.83,-123.37 -1346.83,-123.37z"/>
   <polygon class="fil18" points="15250.62,16548.43 15250.62,16858.78 15212.04,16858.78 15212.04,16618.82 "/>
   <polygon class="fil18" points="17095.38,16548.43 17095.38,16858.78 17056.85,16858.78 17056.85,16618.82 "/>
   <path class="fil6" d="M16336.6 9422.78c0,0 49.93,-117.53 87.08,-249.32 1.77,-6.19 3.54,-12.5 5.11,-18.83 4.53,-17.2 8.46,-34.5 12.19,-51.8 2.16,-9.83 3.93,-19.54 5.71,-29.34 13.16,-72.64 16.9,-142.09 0.19,-191.69 -55.24,-162.78 345.58,-50.04 345.58,-50.04 0,0 -77.65,430.69 0,575.94 77.64,145.35 -455.86,15.08 -455.86,15.08z"/>
   <path class="fil20" d="M17016.36 9415.64c44.62,-55.9 -269.31,-75.31 -269.31,-75.31l-366.02 -31.57c0,0 -251.83,41.85 -447.13,109.58 -195.28,67.58 -451.28,437.71 -451.28,437.71 0,0 353.17,828.85 420.77,1066.71 67.58,237.99 -76.72,843.26 -76.72,843.26 423.32,230.49 1259.08,24.68 1259.08,24.68 0,0 -333.2,-2044.81 -69.39,-2375.06z"/>
   <path class="fil21" d="M17165.56 10414.79c0,0 -16.32,34.72 -61.53,171.55 -46,-384.28 -22.02,-584.24 -22.02,-584.24 5.11,205.35 83.55,412.69 83.55,412.69z"/>
   <path class="fil6" d="M16767.49 9327.48l-430.89 351.28 44.43 -370c0,0 251.22,-54.25 386.46,18.72z"/>
   <path class="fil22" d="M17051.94 10807.59c-59.37,245.82 240.41,1015.03 240.41,1015.03l-505.99 171.33c-62.51,21.16 -129.34,-18.26 -140.94,-83.27 -57.01,-319.94 -205.03,-1177.93 -221.74,-1558.34 -20.63,-472.68 323.37,-1030.13 323.37,-1030.13 611.54,104.89 444.06,1030.13 444.06,1030.13 0,0 -22.41,58.25 -52.09,149.32 0,0 0,0 0,0.11 -7.47,22.83 -15.33,47.85 -23.59,74.39 -20.84,68.41 -43.44,147.81 -63.49,231.43z"/>
   <path class="fil22" d="M16337.78 9328.99l7.47 -20.23c0,0 -313.24,47.6 -472.39,127.11 -159.16,79.52 -463.89,490.22 -463.89,490.22l398.53 526.23c0.45,404.37 -140.69,1353.12 -140.69,1353.12l277.04 113.32c43.15,17.54 90.52,-13.7 91.21,-60.24 4.56,-288.83 17.88,-1144.13 24.79,-1477.89 8.19,-404.38 296.8,-1058.42 296.8,-1058.42 -6.48,2.1 -12.77,4.44 -18.87,6.78z"/>
   <path class="fil6" d="M15769.84 11225.05c0,0 300.54,11.6 347.19,0 46.78,-11.67 358.75,-146.98 377.42,-280.53 18.67,-133.55 -724.61,119.75 -724.61,119.75l0 160.78z"/>
   <polygon class="fil23" points="16702.23,10807.59 15482.62,10664.91 16033.66,11113.16 "/>
   <polygon class="fil24" points="16033.66,11113.16 16702.23,10885.23 16702.23,10807.59 16011.09,11029.3 "/>
   <polygon class="fil3" points="16403.64,9240.47 16171.87,9608.13 16059.85,9678.76 16321.07,9312.74 "/>
   <polygon class="fil13" points="16171.87,9608.13 16336.6,9678.76 16381.03,9308.76 16403.64,9240.47 "/>
   <path class="fil22" d="M15806.56 11053.05c0,0 -12.52,155.29 0,187.81 0,0 -752.15,-75.09 -822.21,-180.32 -70.16,-105.15 -67.59,-232.84 -67.59,-232.84l889.8 225.35z"/>
   <polygon class="fil24" points="16033.66,11113.16 15678.04,9790.9 14325.74,9648.11 14696.33,10865.24 "/>
   <path class="fil22" d="M17786.34 10357.25c67.82,-55.9 107.72,-76.48 189.5,-146.88 127.18,-109.45 289.75,-248.15 289.75,-248.15l154.51 226.98c0,0 -373.69,328.62 -572.43,523.54l0 0.12c0,0 -251.42,269.9 -307.64,246.05 -56.02,-23.86 -256.53,-314.46 -416.54,-593.71 -160.01,-279.38 -231.76,-457.71 -239.82,-579.33 -7.86,-121.62 394.72,-180.2 394.72,-180.2l315.31 688.54c0,0 56.02,98.47 84.52,128.17 0,0 70.97,-40.22 108.12,-65.13z"/>
   <path class="fil6" d="M16628.91 7892.15c-140.95,-23.04 -463.35,12.27 -554.79,382.28 0,0 -0.24,102.55 15.19,184.88 15.57,82.32 -82.56,308.72 -65.24,322.4 17.18,13.68 92.37,37.19 92.37,37.19 0,0 53.33,265.69 143.62,273.75 90.11,8.2 438.63,-23.27 635.4,-323.58 196.78,-300.41 302.34,-783.73 -266.55,-876.92z"/>
   <path class="fil11" d="M16074.12 8274.43c0,0 212.16,183.13 436.84,240.88 224.49,57.77 343.42,310.14 343.42,310.14 0,0 397.47,-396.44 157.65,-781.29 -239.82,-384.72 -937.44,-213.07 -937.91,230.27z"/>
   <path class="fil11" d="M16552.24 8528.54c0,0 235.11,617.09 207.59,765.72 0,0 116.17,-20.11 332.8,46.07 0,0 -104.78,-1102.27 -540.39,-811.79z"/>
   <polygon class="fil13" points="16461.23,9619.12 16336.6,9678.76 16759.83,9259.29 "/>
   <polygon class="fil3" points="16759.83,9259.29 16461.23,9619.12 16624.58,9764.94 16800.91,9334.02 "/>
   <path class="fil16" d="M16677.86 8979.58c-1.97,3.15 -66.64,103.83 -249.07,175.05 4.53,-17.2 8.46,-34.5 12.19,-51.8 2.16,-9.83 3.93,-19.54 5.71,-29.34 0,0 150.96,-36.85 231.17,-93.91z"/>
   <path class="fil25" d="M15222.44 10343.67c37.54,70.86 36.95,144.78 -1.4,165.12 -38.37,20.37 -99.98,-20.46 -137.64,-91.21 -37.67,-70.74 -36.96,-144.64 1.4,-165.1 38.37,-20.37 99.97,20.46 137.64,91.19z"/>
   <path class="fil22" d="M16800.91 9334.02c0,0 393.94,-53.45 508.74,359.01 0,0 -500.88,-53.9 -508.74,-359.01z"/>
   <path class="fil26" d="M2671.78 12046.22c190.01,0 344.06,-154.13 344.06,-344.04 0,-51.35 -11.22,-99.98 -31.37,-143.72 -54.41,-118.22 -173.93,-200.42 -312.69,-200.42 -190,0 -344.05,154.11 -344.05,344.14 0,65.14 18.16,126.18 49.73,178.21 60.31,99.41 169.55,165.83 294.32,165.83z"/>
   <path class="fil27" d="M3021.21 12015.34c132.94,0 240.74,-107.82 240.74,-240.78 0,-7.71 -0.33,-15.2 -1.06,-22.81 -11.46,-122.19 -114.4,-217.96 -239.68,-217.96 -132.95,0 -240.77,107.81 -240.77,240.77 0,84.31 43.33,158.46 108.93,201.49 37.87,24.79 83.17,39.29 131.84,39.29z"/>
   <path class="fil28" d="M2666.17 11720.18c0,0 -19.16,159.86 -25.55,377.15 -6.41,217.26 166.16,217.26 166.16,217.26l0 796.03 119.79 0c0,0 -2.83,-811.94 56.83,-877.3 59.65,-65.26 59.65,-374.9 59.65,-374.9l-34.09 -19.9c0,0 51.15,366.38 -181.81,420.42 -232.94,53.9 -144.88,-522.74 -144.88,-522.74l-16.1 -16.02z"/>
   <path class="fil29" d="M2586.56 11757.5c197.52,-36.84 327.61,-122.33 397.91,-199.04 -54.41,-118.22 -173.93,-200.42 -312.69,-200.42 -190,0 -344.05,154.11 -344.05,344.14 0,65.14 18.16,126.18 49.73,178.21 9.46,-46.76 60.69,-95.18 209.1,-122.89z"/>
   <path class="fil30" d="M3091.5 11840.63c79.83,-23.04 133.89,-54.61 169.39,-88.88 -11.46,-122.19 -114.4,-217.96 -239.68,-217.96 -132.95,0 -240.77,107.81 -240.77,240.77 0,84.31 43.33,158.46 108.93,201.49 24.41,-46.06 79.63,-100.1 202.13,-135.42z"/>
   <polygon class="fil31" points="3227.06,12740.6 2417.45,12740.6 2459.18,12890.89 3176.95,12890.89 "/>
   <polygon class="fil32" points="3125.9,12890.89 2525.03,12890.89 2608.5,13230.7 3067.46,13230.7 "/>
   <path class="fil30" d="M3043.05 11564.06l20.77 6.34c0,0 32.67,-88.78 34.8,-100.81 2.12,-12.05 -55.57,94.47 -55.57,94.47z"/>
   <path class="fil30" d="M3239.25 11570.4l-102.99 31.33c0,0 0.71,9.24 14.19,9.24 13.51,0 88.8,-40.57 88.8,-40.57z"/>
   <path class="fil30" d="M3203.73 11786.37l-26.28 0c0,0 4.97,39.06 26.28,63.85 21.3,24.91 0,-63.85 0,-63.85z"/>
   <path class="fil29" d="M2571.66 11293.48c-10.65,7.82 37.64,125.69 37.64,125.69l24.12 0c0,0 -51.13,-133.53 -61.76,-125.69z"/>
   <path class="fil29" d="M2683.86 11390.06c4.27,-32.02 -20.6,-85.95 -20.6,-85.95l0 80.92c0,0 16.34,36.95 20.6,5.03z"/>
   <path class="fil29" d="M2493.52 11854.66c14.92,-12.26 15.63,-119.5 15.63,-119.5l-23.43 8.54c0,0 -7.12,123.13 7.8,110.96z"/>
   <path class="fil33" d="M2926.85 12890.89l-401.82 0 83.47 339.81 131.56 0c-74.34,-273.51 186.79,-339.81 186.79,-339.81z"/>
   <path class="fil34" d="M2629.63 13230.7c32.95,-13.8 86.2,-169.44 111.83,-250.02 9.08,-28.64 14.7,-47.71 14.7,-47.71l-301.48 0c26.04,186.06 89.32,297.73 89.32,297.73l85.63 0z"/>
   <path class="fil35" d="M2653.81 12840.25c0,-10.89 48.38,-56.26 72.57,-85.85 24.2,-29.58 -9.29,-85.7 -9.29,-85.7 -107.94,44.66 -89.33,171.55 -89.33,171.55 0,0 26.05,10.75 26.05,0z"/>
   <path class="fil35" d="M2592.38 12845.04l13.03 0c0,0 9.32,-219.16 -70.71,-248.98 -80.02,-29.7 -80.02,-89.34 -80.02,-89.34 0,0 -24.2,81.87 14.88,124.79 39.08,42.79 83.74,92.95 76.31,133.88 -7.45,41.05 46.51,79.65 46.51,79.65z"/>
   <path class="fil36" d="M2741.46 12980.68c9.08,-28.64 14.7,-47.71 14.7,-47.71l-301.48 0c26.04,186.06 89.32,297.73 89.32,297.73l19.7 0c-3.68,-174.24 111.06,-231.54 177.76,-250.02z"/>
   <polygon class="fil37" points="2756.09,12840.25 2452.4,12840.25 2435.1,12932.97 2768.45,12932.97 "/>
   <path class="fil38" d="M10857.87 16716.23c0,0 -69.23,129.1 -114.48,180.44 -45.14,51.22 -218.32,142.78 -219.27,295.04 -1.04,165.01 291.88,119.28 406.48,113.2 114.49,-6.08 123.25,-94.26 171.44,-187.69 48.18,-93.44 96.83,-77.65 105.95,-152.96 9,-75.42 -46.78,-248.03 -46.78,-248.03l-303.34 0z"/>
   <path class="fil38" d="M12601.8 16701.26c0,0 141.16,157.52 284.41,190.62 143.36,32.97 243.59,75.07 244.63,165.58 1.07,90.4 -412.45,150.04 -576.39,58.82 -244.76,-136.11 -269.68,-95.07 -296.81,-163.12 -27.13,-67.96 32.63,-249.91 30.88,-271.54 -2.22,-26.67 313.28,19.64 313.28,19.64z"/>
   <path class="fil39" d="M12585.9 16625.83c0,0 18.59,73.8 15.9,75.43 -2.81,1.52 -322.99,39.65 -313.28,-19.64 7.85,-47.95 19.07,-100.22 19.07,-100.22l278.31 44.43z"/>
   <path class="fil39" d="M11157.23 16666.42c0,0 13.45,70.4 10.89,72.15 -2.69,1.63 -324.76,59.17 -322.87,0.7 1.4,-46.42 29.7,-100.57 29.7,-100.57l282.28 27.72z"/>
   <path class="fil40" d="M12294.71 12205.84c0,0 116.48,1130.82 177.06,1517.89 70.86,452.67 94.85,826.54 114.6,1060.88 24.79,294.68 29.59,1744.05 47,1830.24 17.32,86.18 -385.78,23.85 -385.78,23.85 0,0 -198.22,-1893.98 -272.23,-2207.71 -68.88,-292.23 -324.51,-1550.17 -387.31,-1470.42 -62.91,79.75 -140.79,1468.08 -187.34,1698.45 -46.55,230.48 -188.16,2034.64 -188.16,2034.64 0,0 -320.77,63.97 -406.12,-8.3 0,0 -38.83,-1554.84 -9.13,-1986.93 11.23,-164.65 -192.95,-1974.2 68.87,-2702.73 138.46,-385.09 1428.54,210.14 1428.54,210.14z"/>
   <path class="fil41" d="M11249.51 11955.13c0,0 77.76,-117.53 159.97,-132.63 82.33,-15.08 -1133.39,-602.7 -1130.11,-812.62 2.46,-170.25 437.71,-452.79 437.71,-452.79 0,0 0,0.24 0.22,0.71 0.12,0.12 0.12,0.47 0.12,0.59 0,0.23 0.12,0.45 0.12,0.71 9.23,33.67 134.94,500.14 139.29,724.32 4.68,232.7 -13.94,1032.94 -13.94,1032.94l311.65 83.48 995.18 9.24 227.2 -92.72c0,0 -24.79,-257.28 -34.03,-438.07 -5.72,-114.84 -28.07,-320.53 -22.33,-520.86 0,0 -3.63,-211.19 17.32,-302.16 2.22,-401.34 26.54,-798.94 26.54,-798.94 13.56,-181.97 22.8,-352.1 28.19,-510.91 -43.86,-23.16 -96.6,-50.41 -138.94,-70.51 -130.74,-62.22 -312.81,-146.06 -429.75,-199.63 -68.41,-31.45 -135.42,-54.49 -135.42,-54.49 0,0 -467.18,-44.68 -505.06,-42.34 -12.05,0.71 -70.4,21.05 -147,50.28 -165.6,62.81 -484.95,190.86 -535.82,227.34 -74.6,53.45 -562.95,1345.16 -570.09,1434.03 -12.74,159.99 1318.98,865.03 1318.98,865.03z"/>
   <path class="fil42" d="M12346.86 12231.46c0,0 -683.62,58.22 -1282.35,0l0 196.45c0,0 891.66,85.14 1312.41,-37.42l-30.06 -159.03z"/>
   <path class="fil43" d="M11763.81 9449.43c0,0 111.21,261.25 194.7,845.14 32.04,224.29 91.45,601.77 134.6,987.1l0 0.11c34.04,303.81 111.81,615.58 136.48,848.05 25.59,240.9 102.67,950.49 102.67,950.49l186.98 -117.88c26.66,-24.67 64.09,-56.71 53.21,-91.45 -51.34,-166.04 -149.79,-714.84 -207.91,-1193.25 0,-0.35 -0.12,-0.59 -0.12,-0.94 -2.7,-23.16 -5.51,-45.96 -8.08,-68.64 -0.12,-1.18 -0.24,-2.34 -0.35,-3.62 -10.97,-95.67 -20.11,-187.34 -26.54,-271.31 -5.03,-64.32 -0.59,-127.23 8.29,-188.73 26.09,-429.42 38.96,-882.09 38.96,-882.09 13.8,-185.35 21.63,-358.53 26.89,-519.92 0,0 -586.57,-277.27 -639.78,-293.06z"/>
   <path class="fil43" d="M10418.88 10950.6c-81.05,177.76 744.09,494.66 725.5,538.51 -44.67,105.13 -226.75,319.49 -226.75,319.49 0,0 -1086.37,-537.35 -1074.22,-659.19 8.78,-88.77 517.81,-1429.84 592.43,-1483.27 43.03,-30.88 362.03,-143.97 518.63,-205.72 28.64,-11.34 126.3,-48.06 151.91,-57.75 33.32,36.95 262.17,289.65 343.08,1244.12 13.59,160.92 -29.44,501.56 -58.22,779.65 -30.65,296.55 -64.56,528.1 -89.47,776.24 -48.98,488.7 -83.24,877.64 -83.24,877.64l-486.49 -216.56c-78.71,-39.42 -214.81,-142.11 -185.23,-225 112.38,-315.05 281.12,-911.91 281.36,-1188.36 0,0 -79.52,-762.69 -122.57,-911.43 0,0 -195.98,212.83 -286.72,411.63z"/>
   <path class="fil12" d="M11226.58 9428.16c0,0 -3.28,-160.44 -65.02,-484.85 -16.59,-86.86 504.13,228.52 504.13,228.52 0,0 -1.51,30.39 -2.57,71.44 -0.57,21.76 -0.92,46.43 -0.83,71.1 0.14,8.66 0.14,17.32 0.36,25.96 0.47,22.92 1.53,44.9 3.52,63.62 1.98,19.18 13.32,53.21 17.41,62.56 21.41,49.47 -281.71,87.13 -457,-38.35z"/>
   <path class="fil44" d="M11551.56 9596.19l86.3 115.9c0,0 -50.5,67.71 -140.32,17.78l54.02 -133.68z"/>
   <path class="fil44" d="M11614.82 9716.78c0,0 327.32,1260.49 259.85,2241.62l-110.16 194.11 -103.02 -203.36c0,0 -28.31,-1754.91 -117.99,-2235.42l71.32 3.05z"/>
   <path class="fil12" d="M11644.07 9488.04l-92.51 108.15c0,0 -148.27,-28.75 -191.89,-106.28 -43.51,-77.43 284.4,-1.87 284.4,-1.87z"/>
   <path class="fil45" d="M11665.22 9393.43c0,0 -10.75,82.33 -113.66,202.76l112.39 150.86 60.7 -313.05 -59.43 -40.57z"/>
   <path class="fil45" d="M11216.64 9301.63c0,0 185.01,235.16 334.92,294.56l-69.68 172.5 -318.79 -385.33 53.55 -81.73z"/>
   <path class="fil6" d="M14306.56 11045.32c0,0 342.98,40.01 362.17,61.98 19.3,21.98 14.74,40.58 -17.54,38.12 -32.28,-2.34 -333.17,-29 -333.17,-29 0,0 393.15,116.12 413.16,130.39 11.69,8.42 4.91,44.78 -12.53,45.14 -17.53,0.23 -415.36,-92.02 -415.36,-92.02 0,0 366.85,109.1 379.59,126.16 11.22,15.1 -3.28,47.49 -31.24,41.28 -27.81,-6.19 -375.36,-87.81 -375.36,-87.81 0,0 260.78,96.58 262.53,118.11 1.16,13.09 -3.28,44.78 -69.59,17.65 -66.42,-27.01 -230.84,-74.01 -230.84,-74.01l68.18 -295.99z"/>
   <path class="fil6" d="M13901 11061.46c0,0 114.15,5.96 149.11,-51.79 29.7,-49.13 102.21,-93.55 124.43,-107.37 29.82,-18.36 102.67,-107.45 123.72,-71.68 21.05,35.78 -113.31,152.14 -136.93,181.84 -23.75,29.72 140.78,18.83 170.84,40.36 30.06,21.62 13.68,293.97 -99.17,288.49 -112.95,-5.63 -224.77,-86.3 -244.97,-83.39 -20.37,3.05 -82.56,-0.71 -82.56,-0.71l-4.47 -195.75z"/>
   <path class="fil43" d="M13948.61 11330.77c0,0 -841.28,-117.75 -1028.02,-163.71 -86.32,-21.29 -199.98,-140.45 -308.03,-280.55 -35.55,-46.07 -70.52,-94.47 -103.72,-142.42 -0.12,-0.12 -0.12,-0.23 -0.12,-0.23 -132.61,-191.33 -236.46,-374.81 -236.46,-374.81 0,0 -391.75,-459.1 -77.41,-663.75 0,0 134.83,-2.91 208.74,37.19 75.9,41.28 238.1,379.58 265.58,439.46 27.48,59.87 325.19,616.28 345.09,628.8 19.99,12.51 317.13,77.06 449.62,104.66 191.8,39.98 552.2,114.84 552.2,114.84l-67.47 300.52z"/>
   <polygon class="fil46" points="11523.16,12484.39 11842.87,12484.39 11842.87,12241.86 11523.16,12241.86 "/>
   <path class="fil47" d="M11308.68 11969.62c0,0 -39.77,-1.63 -56.72,-10.75 0,0 -29.82,-19.19 -51.8,-31.46 -6.91,-3.87 -13.11,-7.01 -17.31,-8.78 -17.54,-6.88 -58.11,-16.95 -95.66,-45.49 -37.42,-28.52 -159.5,-142.77 -159.5,-142.77l78.93 -121.27 36.36 -119.99c0,0 284.64,28.31 322.53,50.76 3.75,2.22 7.25,4.56 10.53,7.01 30.29,22.22 43.39,51.57 57.99,65.01 5.39,4.92 54.86,58.01 52.15,79.54 -3.85,29.82 -18.57,48.98 -37.17,58.1 0,0 -9.95,58.13 -40.12,84.1 0,0 -7.47,53.9 -54.02,75.66 0,0 -13.8,53.9 -46.19,60.33z"/>
   <path class="fil43" d="M10917.63 11808.6c0,0 158.22,-129.82 243.93,-319.49l-485.54 -265.92 -180.2 366.84 421.81 218.57z"/>
   <path class="fil6" d="M11939.92 8373.46c0,0 114.48,212.15 57.77,245.13 -46.88,27.25 54.84,235.4 68.17,269.31 13.35,34.02 -84.9,58.81 -105.72,80.67 -20.81,21.88 -82.66,291.19 -163.47,299.27 -80.93,8.18 -445.2,-118.58 -544.47,-221.74 -99.17,-103.12 -180.56,-569.02 -114.37,-765.6 66.19,-196.45 600.26,-277.62 802.09,92.96z"/>
   <path class="fil44" d="M11962.84 8419.42c0,0 116.7,-229.09 -95.42,-398.99 -212.13,-169.91 -603.19,128.29 -647.26,139.63 -44.09,11.46 -294.24,28.64 -167.94,467.75 108.42,377.15 123.61,393.05 123.61,393.05 0,0 80.93,-218.57 126.77,-251.79 71.67,-52.03 228.62,-39.51 228.62,-39.51 0,0 -74.72,-198.68 42.2,-226.87 116.96,-28.07 271.08,-127.22 389.42,-83.27z"/>
   <path class="fil6" d="M11406.67 8615.78c-10.28,-27.25 -43.62,-144.42 -144.19,-75.54 -100.45,68.76 62.69,289.41 80.22,292.34 17.44,2.79 150.74,12.5 63.97,-216.8z"/>
   <path class="fil16" d="M11662.29 9314.37c0.14,8.66 0.14,17.32 0.36,25.96 -297.85,-99.97 -355.49,-250.49 -355.49,-250.49 92.84,65.73 355.96,153.43 355.96,153.43 -0.57,21.76 -0.92,46.43 -0.83,71.1z"/>
   <polygon class="fil48" points="5078.34,13229.07 6465.83,13229.07 6465.83,13146.63 5078.34,13146.63 "/>
   <polygon class="fil49" points="6158.3,17189.02 6279.88,17189.02 6279.88,13443.43 6158.3,13443.43 "/>
   <polygon class="fil50" points="4331.06,13241 5295.51,13241 5295.51,13123.37 4331.06,13123.37 "/>
   <polygon class="fil51" points="4630.68,13229.07 4995.89,13229.07 4995.89,12119.77 4630.68,12119.77 "/>
   <polygon class="fil52" points="1620.02,13443.42 6963.55,13443.42 6963.55,13230.35 1620.02,13230.35 "/>
   <path class="fil53" d="M7989.08 11941.33c0,0 58.46,819.62 -101.69,917.75 -100.31,61.39 -500.3,268.6 -488.43,307.54 11.86,38.82 225.83,345.8 225.83,345.8 0,0 768.33,-506.01 793.12,-665.39 24.21,-155.77 -37.88,-1200.05 -143.44,-1248.11 -79.11,-36.02 -120.86,-6.31 -220.54,67.7 -139.88,103.85 -64.85,274.71 -64.85,274.71z"/>
   <path class="fil54" d="M6588.84 12175.31l-67.7 -25.02c0,0 84.45,-198.21 121.31,-193.41 42.46,5.6 95.45,19.52 95.45,19.52l-149.06 198.91z"/>
   <path class="fil55" d="M6573.39 12209.58c8.65,-6.43 143.93,-266.05 143.93,-266.05l289.04 39.3 -156.17 307.44 -276.8 -80.69z"/>
   <path class="fil56" d="M7043.81 16677.64c0,0 23.91,165.82 26.87,190.74 3.01,24.9 265.79,-14.63 265.79,-14.63l21.27 -197.51c0,0 -281.08,-1.99 -313.93,21.4z"/>
   <path class="fil40" d="M7067.89 16847.32c0,0 -83.25,99.87 -163.79,143.48 -80.53,43.51 -207.06,60.82 -254.7,105.84 -34.38,32.63 -125.17,172.72 209.26,169.92 334.47,-2.93 495.72,19.76 531.55,-34.04 35.84,-53.67 -51.83,-396.43 -51.83,-396.43 0,0 -79.24,28.54 -270.49,11.23z"/>
   <path class="fil56" d="M5360.17 16679.16c0,0 23.88,165.94 26.87,190.85 2.99,24.91 265.77,-14.73 265.77,-14.73l21.29 -197.4c0,0 -281.08,-2.11 -313.93,21.28z"/>
   <path class="fil40" d="M5384.25 16848.84c0,0 -83.27,99.98 -163.79,143.48 -80.53,43.62 -376.89,79.41 -424.48,124.43 -34.38,32.51 -91.54,163.6 379.04,151.32 334.35,-8.65 495.7,19.77 531.55,-33.91 35.82,-53.68 -51.85,-396.55 -51.85,-396.55 0,0 -74.64,30.53 -270.47,11.23z"/>
   <path class="fil40" d="M7891.4 13813.08c0,0 -955.39,161.72 -1171.17,195.51 -215.8,33.91 -1385.81,325.09 -1532.12,413.73 -116.47,70.65 61.09,1766.63 102.55,2413.77l460.85 0 33.42 -1941.09c553,13.92 947.62,-129.34 1350.37,-68.17 402.68,61.16 738.41,148.16 994.31,-195.18 0,0 9.51,-743.62 -238.21,-818.57z"/>
   <path class="fil40" d="M6949.73 16837.61l449.1 -27.71 43.77 -1914.9c238.05,5.98 319.69,-9.12 512.33,-32.51l362.65 -842.8c-317.81,63.52 -1336,320.3 -1471.76,402.63 -116.47,70.65 62.43,1768.27 103.91,2415.29z"/>
   <path class="fil6" d="M7451.6 10231.88c0,0 -350.23,-96.81 -483.82,175.07 -133.64,271.88 -73.07,787.36 103.45,835.89 176.53,48.42 430.35,-7.37 503.63,-176.58 73.26,-169.21 131.72,-409.76 114.17,-565.41 -17.53,-155.77 -144.42,-231.78 -237.43,-268.97z"/>
   <path class="fil6" d="M7162.74 11188.57c0,0 3.85,206.76 -18.95,250.85 -22.78,44.09 487.7,32.98 487.7,32.98 0,0 -80.46,-248.27 -34.81,-459.8 45.17,-209.46 -433.94,175.97 -433.94,175.97z"/>
   <path class="fil57" d="M7624.18 10934.24c0,0 -27.29,55.53 -159.42,46.53 -132.14,-8.89 -306.42,-168.39 -362.51,-182.54 -56.1,-14.27 -59.44,-46.19 -59.44,-46.19l-29.68 52.73 -57.48 8.77c0,0 39.06,-159.73 -46.04,-215.97 -85.1,-56.38 38.33,-509.41 469.18,-400.07 0,0 328.83,60.23 333.24,243.83 4.42,183.6 -24.02,395.72 -87.85,492.91z"/>
   <path class="fil48" d="M7116.96 11434.03c0,0 1.43,-84.19 39.61,-92.25 38.19,-8.08 401.27,-58.01 448.13,-39.65l20.09 111.2c0,0 -90.27,55.55 -507.83,20.7z"/>
   <path class="fil6" d="M7011.91 10714.39c9.79,-69 88.28,-148.41 133.22,-40.83 44.95,107.49 -30.33,264.06 -80.78,255.77 -50.42,-8.44 -65.75,-121.27 -52.44,-214.94z"/>
   <path class="fil43" d="M5596.14 12429.19c0.15,-0.12 0.35,-0.12 0.61,-0.12 -2.62,1.18 -3.01,1.3 -0.61,0.12z"/>
   <path class="fil57" d="M7553.77 10281.24c0,0 427.01,-20.11 74.54,646.43l-74.54 -646.43z"/>
   <polygon class="fil58" points="8505.27,17064.83 8473.46,17154.18 7131.25,16738.21 7195.57,16557.31 "/>
   <polygon class="fil58" points="7085.19,16674.6 7237.75,16674.6 7237.75,15215.3 7085.19,15215.3 "/>
   <polygon class="fil59" points="6711.58,15223.83 7611.38,15223.83 7611.38,15137.77 6711.58,15137.77 "/>
   <polygon class="fil58" points="5805.96,17064.83 5837.73,17154.18 7179.92,16738.21 7120.93,16545.97 "/>
   <polygon class="fil58" points="6751.62,17144.59 6751.62,17248.55 7179.92,16738.21 7120.93,16545.97 "/>
   <path class="fil60" d="M5680.51 17189.02c0,69.35 56.18,125.48 125.45,125.48 69.28,0 125.42,-56.13 125.42,-125.48 0,-69.23 -56.14,-125.36 -125.42,-125.36 -69.27,0 -125.45,56.13 -125.45,125.36z"/>
   <path class="fil60" d="M6740.97 17189.02c0,69.35 56.18,125.48 125.45,125.48 69.26,0 125.44,-56.13 125.44,-125.48 0,-69.23 -56.18,-125.36 -125.44,-125.36 -69.27,0 -125.45,56.13 -125.45,125.36z"/>
   <path class="fil60" d="M8379.79 17189.02c0,69.35 56.12,125.48 125.48,125.48 69.23,0 125.35,-56.13 125.35,-125.48 0,-69.23 -56.12,-125.36 -125.35,-125.36 -69.36,0 -125.48,56.13 -125.48,125.36z"/>
   <path class="fil61" d="M6204.4 15137.77l1902.37 0c63.31,0 114.64,-51.34 114.64,-114.6l0 -96.48c0,-63.26 -51.33,-114.6 -114.64,-114.6l-1902.37 0c-63.32,0 -114.64,51.34 -114.64,114.6l0 96.48c0,63.26 51.32,114.6 114.64,114.6z"/>
   <polygon class="fil49" points="2303.69,17189.02 2425.26,17189.02 2425.26,13443.43 2303.69,13443.43 "/>
   <path class="fil62" d="M3350.88 12654.07l2924.82 0c63.16,0 114.36,-51.09 114.36,-114.37l0 -1995.94c0,-63.13 -51.2,-114.36 -114.36,-114.36l-2924.82 0c-63.18,0 -114.38,51.23 -114.38,114.36l0 1995.94c0,63.28 51.2,114.37 114.38,114.37z"/>
   <polygon class="fil63" points="3360.02,12305.47 6266.58,12305.47 6266.58,10549.72 3360.02,10549.72 "/>
   <path class="fil64" d="M4160.43 13233.28l0 -39.65c0,0 55.67,-246.15 449.34,-246.15 393.68,0 385.71,285.8 385.71,285.8l-835.05 0z"/>
   <path class="fil6" d="M5000.24 12983.96c0,0 -85.51,-6.54 -116.84,-25.49 -31.32,-18.95 -218.79,-145.02 -262.82,-124.77 -44.04,20.11 -337.09,109.9 -326.91,152.72 10.19,42.91 37.29,38.82 57.97,31.22 20.66,-7.61 233.46,-52.27 252.23,-44.79 0,0 -209,76.26 -209.85,131.91 -0.84,55.67 43.74,69.23 63.58,90.29 19.81,21.03 43.6,73.2 97.46,77.29 53.86,3.97 316.68,-87.48 370.8,-91.68 54.09,-4.09 154.23,3.38 161.05,-5.39 6.8,-8.88 -86.67,-191.31 -86.67,-191.31z"/>
   <path class="fil53" d="M6557.25 11550.74c272.69,-47.83 559.71,-116.71 559.71,-116.71l507.85 -20.7c0,0 466.1,102.67 649.66,185.59 17.41,7.84 17.49,415.71 65.34,522.73l-152.25 321.1c0,0 -87.91,635.94 -106.15,918.81 -8.39,129.8 23.65,1254.9 23.65,1254.9 0,0 -45.6,22.56 -392.21,60.8 -346.6,38.13 -1212.61,-13.92 -1218.07,-54.85 -5.47,-40.93 167.72,-1524.32 175.38,-1601.16 11.78,-117.86 -34.04,-662.69 -34.04,-662.69 -65.33,87.71 -231.79,483.91 -405.32,672.4 -102.08,110.87 -607.52,178.81 -702.8,181.97 -207.38,6.9 -585.71,48.18 -596.78,28.07 -8.82,-12.16 -32.94,-335.86 -9.24,-343.69 20.76,-7.01 723.28,-47.35 903.26,-142.91 65.84,-34.95 262.69,-464.13 262.69,-464.13 0,0 318.9,-671.81 469.32,-739.53z"/>
   <path class="fil61" d="M7469.48 14583.94l1029.83 0c121.48,0 220.07,-98.46 220.07,-220.08l0 -1595.78c0,-121.5 -98.59,-220.08 -220.07,-220.08l-1029.83 0c-121.57,0 -220.11,98.58 -220.11,220.08l0 1595.78c0,121.62 98.54,220.08 220.11,220.08z"/>
   <path class="fil61" d="M7509.85 15056.72c216.67,0 392.46,-72.73 522.52,-216.33 293.85,-324.38 241.04,-894.71 238.66,-918.92 -4.49,-44.9 -44.61,-77.77 -89.47,-73.33 -44.93,4.47 -77.74,44.57 -73.32,89.47 0.63,6.54 47.44,523.41 -197.44,793.33 -99.05,109.22 -230.21,162.19 -400.95,162.19 -45.17,0 -81.79,36.61 -81.79,81.86 0,45.13 36.62,81.73 81.79,81.73z"/>
   <path class="fil65" d="M5225.5 10782.33l818.61 0c9.06,0 16.4,-7.38 16.4,-16.38l0 -59.99c0,-9.12 -7.34,-16.36 -16.4,-16.36l-818.61 0c-9.06,0 -16.4,7.24 -16.4,16.36l0 59.99c0,9 7.34,16.38 16.4,16.38z"/>
   <path class="fil65" d="M5225.5 10981.24l818.61 0c9.06,0 16.4,-7.37 16.4,-16.37l0 -59.98c0,-9.02 -7.34,-16.39 -16.4,-16.39l-818.61 0c-9.06,0 -16.4,7.37 -16.4,16.39l0 59.98c0,9 7.34,16.37 16.4,16.37z"/>
   <path class="fil65" d="M5264.22 12165.6l741.15 0c30.45,0 55.14,-24.67 55.14,-55.08l0 -938.66c0,-30.53 -24.69,-55.2 -55.14,-55.2l-741.15 0c-30.45,0 -55.12,24.67 -55.12,55.2l0 938.66c0,30.41 24.67,55.08 55.12,55.08z"/>
   <path class="fil65" d="M3608.28 12165.6l1341.66 0c48.2,0 87.28,-39.04 87.28,-87.24l0 -1301.54c0,-48.18 -39.08,-87.22 -87.28,-87.22l-1341.66 0c-48.2,0 -87.26,39.04 -87.26,87.22l0 1301.54c0,48.2 39.06,87.24 87.26,87.24z"/>
  </g>
 </g>
</svg>
